<?xml version="1.0" encoding="UTF-8" standalone="no"?>
<!-- Created with Inkscape (http://www.inkscape.org/) -->

<svg
   xmlns:dc="http://purl.org/dc/elements/1.1/"
   xmlns:cc="http://creativecommons.org/ns#"
   xmlns:rdf="http://www.w3.org/1999/02/22-rdf-syntax-ns#"
   xmlns:svg="http://www.w3.org/2000/svg"
   xmlns="http://www.w3.org/2000/svg"
   xmlns:sodipodi="http://sodipodi.sourceforge.net/DTD/sodipodi-0.dtd"
   xmlns:inkscape="http://www.inkscape.org/namespaces/inkscape"
   width="1052.3622"
   height="744.09448"
   id="svg2"
   version="1.1"
   inkscape:version="0.48.4 r9939"
   sodipodi:docname="logo.svg"
   inkscape:export-filename="/home/anders/politik/robotarforfred.se/raw/logo.png"
   inkscape:export-xdpi="57.939999"
   inkscape:export-ydpi="57.939999">
  <defs
     id="defs4" />
  <sodipodi:namedview
     id="base"
     pagecolor="#ffffff"
     bordercolor="#666666"
     borderopacity="1.0"
     inkscape:pageopacity="0.0"
     inkscape:pageshadow="2"
     inkscape:zoom="0.92461376"
     inkscape:cx="526.18109"
     inkscape:cy="372.04724"
     inkscape:document-units="px"
     inkscape:current-layer="layer1"
     showgrid="false"
     inkscape:window-width="1598"
     inkscape:window-height="879"
     inkscape:window-x="0"
     inkscape:window-y="19"
     inkscape:window-maximized="0" />
  <metadata
     id="metadata7">
    <rdf:RDF>
      <cc:Work
         rdf:about="">
        <dc:format>image/svg+xml</dc:format>
        <dc:type
           rdf:resource="http://purl.org/dc/dcmitype/StillImage" />
        <dc:title></dc:title>
      </cc:Work>
    </rdf:RDF>
  </metadata>
  <g
     inkscape:label="Layer 1"
     inkscape:groupmode="layer"
     id="layer1"
     transform="translate(0,-308.2677)">
    <g
       id="g3890"
       transform="translate(-47.840549,118.01871)">
      <path
         transform="translate(131.67352,135.04975)"
         d="m 329.18378,381.33371 a 120.70072,120.70072 0 1 1 -241.401439,0 120.70072,120.70072 0 1 1 241.401439,0 z"
         sodipodi:ry="120.70072"
         sodipodi:rx="120.70072"
         sodipodi:cy="381.33371"
         sodipodi:cx="208.48306"
         id="path3888"
         style="fill:#d70a05;fill-opacity:1;stroke:none"
         sodipodi:type="arc" />
      <path
         id="path2996"
         d="m 316.35945,352.72704 -30.54892,7.22617 0.0583,28.84127 -0.11014,0.086 c -8.40697,3.58153 -16.33924,7.92349 -23.71616,12.95489 l -23.91462,-15.47548 -22.07629,20.75333 14.31108,24.58981 c -5.70618,7.39183 -10.634,15.35065 -14.74653,23.73541 l -28.63821,-2.56514 -8.29468,28.99912 24.12316,15.56086 c -1.20739,8.89609 -1.54208,17.99142 -0.94397,27.1947 l -25.0955,12.75543 6.4021,29.15326 28.04455,-0.0567 c 3.48642,8.82587 7.87172,17.12771 12.96334,24.86219 l 0.44314,0.93066 -15.92546,22.63464 21.96224,22.85219 22.9856,-13.57241 5.40622,3.40272 c 4.50829,3.22946 9.19785,6.18644 14.06476,8.85809 l 5.18529,3.25608 -1.46011,26.53384 28.68269,9.41074 14.74099,-23.44735 c 9.48059,1.35343 19.19425,1.725 29.0335,1.05056 l 10.52139,23.50658 30.16407,-6.6064 0.32742,-25.9861 c 9.48125,-3.65996 18.40227,-8.30432 26.644,-13.76979 l 21.29411,13.7096 22.46734,-21.34247 -11.7926,-21.75121 c 6.50102,-8.18821 12.07346,-17.06218 16.57954,-26.49701 l 24.87585,2.87918 7.11641,-29.7812 -19.84145,-13.62062 c 1.36623,-9.95799 1.62983,-20.16858 0.72279,-30.49758 l 22.15102,-11.07636 -7.44355,-28.94277 -24.42297,-0.16511 c -3.93975,-9.64834 -8.91124,-18.678 -14.76332,-26.98519 l 13.65454,-21.25111 -20.61746,-21.56176 -21.58375,12.77897 -1.66901,-1.00172 c -7.65971,-5.7226 -15.89282,-10.65777 -24.58721,-14.70191 l 0.83415,-26.94933 -28.44777,-8.40612 -13.09835,23.52983 c -9.37974,-1.20993 -18.9879,-1.44296 -28.70178,-0.67125 l -13.31981,-25.36403 z m 1.05616,55.54788 c 57.71253,-11.66395 114.23883,27.16368 126.27216,86.70391 12.03333,59.54022 -24.98405,117.24155 -82.69658,128.9055 -57.71253,11.66395 -114.26327,-27.12686 -126.29661,-86.66709 -12.03333,-59.54023 25.0085,-117.27838 82.72103,-128.94232 z"
         style="fill:#000000;fill-opacity:1;stroke:none"
         inkscape:connector-curvature="0" />
      <path
         sodipodi:nodetypes="cccccccccccccccc"
         inkscape:connector-curvature="0"
         id="path3865"
         d="m 329.29281,616.57016 -1.319,-11.05922 0,-51.20184 -48.74748,39.44263 2.09254,-27.19487 46.65494,-54.43581 0,-75.13123 c 0,-14.01409 11.07761,-22.87727 11.07761,-22.87727 0,0 10.74785,8.17759 11.0776,22.87727 l 0,75.13123 48.34088,54.43581 1.79668,28.21544 -50.13756,-40.4632 0,51.20184 -0.98925,11.05922 z"
         style="fill:#000000;fill-opacity:1;stroke:none" />
    </g>
    <flowRoot
       xml:space="preserve"
       id="flowRoot3895"
       style="font-size:72px;font-style:normal;font-variant:normal;font-weight:bold;font-stretch:normal;line-height:125%;letter-spacing:0px;word-spacing:0px;fill:#000000;fill-opacity:1;stroke:none;font-family:Sans;-inkscape-font-specification:snap Bold"
       transform="translate(20.491233,77.724086)"><flowRegion
         id="flowRegion3897"><rect
           id="rect3899"
           width="611.10016"
           height="312.30252"
           x="369.6987"
           y="400.7471"
           style="font-size:72px;font-style:normal;font-variant:normal;font-weight:bold;font-stretch:normal;font-family:Sans;-inkscape-font-specification:snap Bold" /></flowRegion><flowPara
         id="flowPara3901"
         style="font-size:100px;font-style:normal;font-variant:normal;font-weight:bold;font-stretch:normal;text-align:center;line-height:125%;writing-mode:lr-tb;text-anchor:middle;font-family:Luxi Mono;-inkscape-font-specification:Luxi Mono Bold">ROBOTAR</flowPara><flowPara
         id="flowPara3903"
         style="font-size:40px;font-style:normal;font-variant:normal;font-weight:bold;font-stretch:normal;text-align:center;line-height:125%;writing-mode:lr-tb;text-anchor:middle;font-family:Luxi Mono;-inkscape-font-specification:Luxi Mono Bold">FÖR</flowPara><flowPara
         id="flowPara3905"
         style="font-size:100px;font-style:normal;font-variant:normal;font-weight:bold;font-stretch:normal;text-align:center;line-height:125%;writing-mode:lr-tb;text-anchor:middle;font-family:Luxi Mono;-inkscape-font-specification:Luxi Mono Bold">FRED</flowPara></flowRoot>  </g>
</svg>
